<svg xmlns="http://www.w3.org/2000/svg" viewBox="0 0 374.8975 157.11808"><g id="Livello_2" data-name="Livello 2"><g id="Livello_1-2" data-name="Livello 1"><line x1="321.71924" y1="10.27787" x2="321.71924" y2="49.96515" style="fill:none;stroke:#1d1d1b;stroke-miterlimit:10;stroke-width:5px"/><rect x="305.25938" width="33.02128" height="10.27787" style="fill:#6db644"/><line x1="286.97732" y1="139.93648" x2="306.82096" y2="105.56628" style="fill:none;stroke:#1d1d1b;stroke-miterlimit:10;stroke-width:5px"/><rect x="267.94119" y="139.27338" width="33.02128" height="10.27787" transform="matrix(0.86603, 0.5, -0.5, 0.86603, 110.31548, -122.87833)" style="fill:#80bd57"/><line x1="355.50391" y1="139.93648" x2="335.66027" y2="105.56628" style="fill:none;stroke:#1d1d1b;stroke-miterlimit:10;stroke-width:5px"/><rect x="341.51876" y="139.27338" width="33.02128" height="10.27787" transform="translate(740.29811 90.46235) rotate(150)" style="fill:#80bd57"/><path d="M13.15674,114.05287C3.67188,114.05287,0,109.15737,0,101.30434v-43.04c0-7.853,3.67188-12.85059,13.15674-12.85059h36.3081V58.77455H14.89062V73.05287H47.32324V86.41371H14.89062V100.692H50.07715v13.36084Z" style="fill:#4a9a35"/><path d="M59.05029,79.78432c0-20.19385,15.40039-35.59424,35.69629-35.59424,20.398,0,35.79834,15.40039,35.79834,35.59424,0,20.2959-15.50244,35.59424-35.79834,35.59424S59.05029,100.08022,59.05029,79.78432Zm56.09424,0c0-12.13672-8.87305-21.52-20.398-21.52-11.42285,0-20.39795,9.3833-20.39795,21.52s8.9751,21.52,20.39795,21.52S115.14453,91.921,115.14453,79.78432Z" style="fill:#4a9a35"/><path d="M158.08008,100.28432h32.02441v13.76855H156.3457c-9.48437,0-13.15625-4.8955-13.15625-12.74853V45.41371h14.89063Z" style="fill:#4a9a35"/><path d="M215.19238,45.41371v68.63916H200.30176V45.41371Z" style="fill:#4a9a35"/><path d="M280.97461,59.18227H260.78125v54.8706H245.89063V59.18227H225.69629V45.41371h55.27832Z" style="fill:#4a9a35"/><path d="M286.07324,79.78432c0-20.19385,15.40039-35.59424,35.69629-35.59424,20.39844,0,35.79883,15.40039,35.79883,35.59424,0,20.2959-15.50293,35.59424-35.79883,35.59424S286.07324,100.08022,286.07324,79.78432Z" style="fill:#4a9a35"/><path d="M331.68223,79.41144c0-5.77274-4.2204-10.23583-9.70236-10.23583-5.43319,0-9.7019,4.46309-9.7019,10.23583s4.26871,10.23583,9.7019,10.23583S331.68223,85.18418,331.68223,79.41144Z" style="fill:#1d1d1b"/></g></g></svg>