<svg xmlns="http://www.w3.org/2000/svg" viewBox="0 0 107.31377 157.11808"><g id="Livello_2" data-name="Livello 2"><g id="Livello_1-2" data-name="Livello 1"><line x1="54.13551" y1="10.27787" x2="54.13551" y2="49.96515" style="fill:none;stroke:#1d1d1b;stroke-miterlimit:10;stroke-width:5px"/><rect x="37.67565" width="33.02128" height="10.27787" style="fill:#6db644"/><line x1="19.39359" y1="139.93648" x2="39.23723" y2="105.56628" style="fill:none;stroke:#1d1d1b;stroke-miterlimit:10;stroke-width:5px"/><rect x="0.35746" y="139.27338" width="33.02128" height="10.27787" transform="matrix(0.86603, 0.5, -0.5, 0.86603, 74.46605, 10.91353)" style="fill:#80bd57"/><line x1="87.92018" y1="139.93648" x2="68.07654" y2="105.56628" style="fill:none;stroke:#1d1d1b;stroke-miterlimit:10;stroke-width:5px"/><rect x="73.93503" y="139.27338" width="33.02128" height="10.27787" transform="translate(240.98007 224.25421) rotate(150)" style="fill:#80bd57"/><path d="M18.48951,79.78432c0-20.19385,15.40039-35.59424,35.69629-35.59424,20.39844,0,35.79883,15.40039,35.79883,35.59424,0,20.2959-15.50293,35.59424-35.79883,35.59424S18.48951,100.08022,18.48951,79.78432Z" style="fill:#4a9a35"/><path d="M64.0985,79.41144c0-5.77274-4.2204-10.23583-9.70236-10.23583-5.43319,0-9.7019,4.46309-9.7019,10.23583s4.26871,10.23583,9.7019,10.23583S64.0985,85.18418,64.0985,79.41144Z" style="fill:#1d1d1b"/></g></g></svg>